<?xml version="1.0" encoding="utf-8"?>
<?xml-stylesheet type="text/xsl" href="rss1.xsl"?>
<rss version="2.0" xmlns:atom="http://www.w3.org/2005/Atom" xmlns:content="http://purl.org/rss/1.0/modules/content/" xmlns:dc="http://purl.org/dc/elements/1.1/" xmlns:media="http://search.yahoo.com/mrss/">
<channel>
 <title>sharemania</title>
 <link>http://www.sharemania.us/</link>
 <atom:link href="http://www.gettyimg.com/" rel="self" type="application/rss+xml" />

 
                <item>
                <title><![CDATA[【HD Live Performances】WEB-RiP - Shawn Mendes - Sziget Festival 2025 WEB-RIP 1080p VP9 AAC2.0]]></title>
                <link><![CDATA[https://sharemania.us/threads/shawn-mendes-sziget-festival-2025-web-rip-1080p-vp9-aac2-0.281968/]]></link>
                <description><![CDATA[<article>
				<blockquote class="messageText SelectQuoteContainer ugc baseHtml">
					
					<img src="https://images2.imgbox.com/03/d8/BlvLjd3F_o.jpg" class="bbCodeImage LbImage" alt="[​IMG]" data-url="https://images2.imgbox.com/03/d8/BlvLjd3F_o.jpg" style=""><br>
<br>



<div class="ToggleTriggerAnchor bbCodeSpoilerContainer">
	<button type="button" class="button bbCodeSpoilerButton ToggleTrigger Tooltip JsOnly" data-target="&gt; .SpoilerTarget"><span>Spoiler: <span class="SpoilerTitle">Mediainfo</span></span></button>
	<div class="SpoilerTarget bbCodeSpoilerText">

<div class="bbCodeBlock bbCodeCode">
	<div class="type">Code:</div>
	<pre>General
Complete name                  : Shawn Mendes - Sziget Festival 2025 WEB-RIP 1080p VP9 AAC2.0.mkv
Format                         : Matroska
Format version                 : Version 4
File size                      : 1.08 GiB
Duration                       : 1 h 29 min
Overall bit rate               : 1 727 kb/s
Frame rate                     : 30.000 FPS
Encoded date                   : 2025-08-12 13:27:47 UTC
Writing application            : mkvmerge v86.0 ('Winter') 64-bit
Writing library                : libebml v1.4.5 + libmatroska v1.7.1

Video
ID                             : 1
Format                         : VP9
Format profile                 : 0
Codec ID                       : V_VP9
Duration                       : 1 h 29 min
Bit rate                       : 1 597 kb/s
Width                          : 1 920 pixels
Height                         : 1 080 pixels
Display aspect ratio           : 16:9
Frame rate mode                : Constant
Frame rate                     : 30.000 FPS
Color space                    : YUV
Chroma subsampling             : 4:2:0 (Type 1)
Bit depth                      : 8 bits
Bits/(Pixel*Frame)             : 0.026
Stream size                    : 1 023 MiB (92%)
Language                       : English
Default                        : Yes
Forced                         : No
Color range                    : Limited
Color primaries                : BT.709
Transfer characteristics       : BT.709
Matrix coefficients            : BT.709

Audio
ID                             : 2
Format                         : AAC LC
Format/Info                    : Advanced Audio Codec Low Complexity
Codec ID                       : A_AAC-2
Duration                       : 1 h 29 min
Bit rate                       : 128 kb/s
Channel(s)                     : 2 channels
Channel layout                 : L R
Sampling rate                  : 44.1 kHz
Frame rate                     : 43.066 FPS (1024 SPF)
Compression mode               : Lossy
Delay relative to video        : -21 ms
Stream size                    : 82.0 MiB (7%)
Default                        : Yes
Forced                         : No

Menu
00:00:00.000                   : Sziget Festival Intro
00:00:10.000                   : Opening
00:02:07.000                   : There's Nothing Holdin' Me Back
00:06:18.000                   : Wonder
00:09:20.000                   : Treat You Better
00:14:12.000                   : Monster
00:16:55.000                   : Teach Me How To Love (Snippet)
00:18:20.000                   : Lost in Japan
00:24:14.000                   : Isn't That Enough
00:27:34.000                   : Heart of Gold
00:32:25.000                   : Senorita (Intro)
00:34:03.000                   : Senorita
00:37:03.000                   : Ruin
00:43:16.000                   : Never Be Alone
00:49:40.000                   : Mercy
00:56:50.000                   : Youth
01:01:18.000                   : Stitches
01:04:56.000                   : It'll Be Okay
01:11:20.000                   : If I Can't Have You
01:15:20.000                   : Why Why Why
01:21:20.000                   : In My Blood
</pre>
</div></div>
</div><br>
<b>Note:</b> There are some minor glitches in the recording (there is a cut around 24:39 and some visual/audio glitches on the last song), but those were from the source itself, not much I could have done to prevent it. <img src="styles/default/xenforo/clear.png" class="mceSmilieSprite mceSmilie39" alt=":cry2:" title="Cry    :cry2:"><br>
<br>




<div class="bbCodeBlock bbCodeVfcHH HiddenContent">
	<div class="attribution type">Hidden Content:</div>
	<blockquote>You must either reply or click 'Like' to see the hidden information contained here.</blockquote>
</div>
					<div class="messageTextEndMarker">&nbsp;</div>
				</blockquote>
			</article>]]></description>
                <author><![CDATA[zefole13]]></author>
                </item>

                </channel></rss>